<svg height="512" viewBox="0 0 512 512" width="512" xmlns="http://www.w3.org/2000/svg"><g id="Flat"><path d="m224 232a7.935 7.935 0 0 1 -1.117-.078l-78-11 2.234-15.844 67.458 9.514-9.495-66.46 15.84-2.264 11 77a8 8 0 0 1 -7.92 9.132z" fill="#cfcfcd"/><path d="m71.431 37.49h113.137v181.019h-113.137z" fill="#348fd9" transform="matrix(.707 -.707 .707 .707 -53.019 128)"/><path d="m103.431 151.999h113.137v16.001h-113.137z" fill="#2d7dbf" transform="matrix(.707 -.707 .707 .707 -66.274 160)"/><path d="m71.431 119.999h113.137v16.001h-113.137z" fill="#2d7dbf" transform="matrix(.707 -.707 .707 .707 -53.019 128)"/><path d="m39.431 87.999h113.137v16.001h-113.137z" fill="#2d7dbf" transform="matrix(.707 -.707 .707 .707 -39.765 96)"/><path d="m119.999 37.49h16.001v181.019h-16.001z" fill="#2d7dbf" transform="matrix(.707 -.707 .707 .707 -53.019 128)"/><path d="m288 280a7.935 7.935 0 0 1 1.117.078l78 11-2.234 15.844-67.458-9.514 9.5 66.46-15.84 2.264-11-77a8 8 0 0 1 7.915-9.132z" fill="#cfcfcd"/><path d="m327.431 293.49h113.137v181.019h-113.137z" fill="#348fd9" transform="matrix(.707 -.707 .707 .707 -159.058 384)"/><path d="m295.431 343.999h113.137v16.001h-113.137z" fill="#2d7dbf" transform="matrix(.707 -.707 .707 .707 -145.803 352)"/><path d="m327.431 375.999h113.137v16.001h-113.137z" fill="#2d7dbf" transform="matrix(.707 -.707 .707 .707 -159.058 384)"/><path d="m359.431 407.999h113.137v16.001h-113.137z" fill="#2d7dbf" transform="matrix(.707 -.707 .707 .707 -172.313 416)"/><path d="m375.999 293.49h16.001v181.019h-16.001z" fill="#2d7dbf" transform="matrix(.707 -.707 .707 .707 -159.058 384)"/><path d="m333.25 246.63-90.51 90.51-67.88-67.88 90.51-90.51c8.86-8.86 24.17-8.89 39.01-1.47a67.994 67.994 0 0 1 17.55 12.79c18.75 18.74 23.81 44.07 11.32 56.56z" fill="#e0e0de"/><path d="m333.25 246.63-88.93 88.93c30.08-46.96 51.65-99.73 60.06-158.28a67.994 67.994 0 0 1 17.55 12.79c18.75 18.74 23.81 44.07 11.32 56.56z" fill="#d6d6d4"/><ellipse cx="208.796" cy="303.204" fill="#cfcfcd" rx="32" ry="48" transform="matrix(.707 -.707 .707 .707 -153.242 236.448)"/><ellipse cx="168" cy="344" fill="#4db7e5" rx="39.188" ry="55.421" transform="matrix(.707 -.707 .707 .707 -194.039 219.55)"/><path d="m100.402 363.999h79.196v16.001h-79.196z" fill="#348fd9" transform="matrix(.707 -.707 .707 .707 -222.039 207.951)"/><path d="m112 416a16 16 0 1 1 16-16 16.019 16.019 0 0 1 -16 16z" fill="#348fd9"/><path d="m296 224h16v16h-16z" fill="#348fd9"/><path d="m272 240h16v16h-16z" fill="#348fd9"/><path d="m120 456a64.072 64.072 0 0 1 -64-64h16a48.053 48.053 0 0 0 48 48z" fill="#a0dde5"/><path d="m112 496a96.108 96.108 0 0 1 -96-96h16a80.091 80.091 0 0 0 80 80z" fill="#a0dde5"/><g fill="#ffb531"><path d="m296 48h-16v24h-16v16h16v24h16v-24h16v-16h-16z"/><path d="m464 216h-16v24h-16v16h16v24h16v-24h16v-16h-16z"/><path d="m344 80h16v16h-16z"/><path d="m376 200h16v16h-16z"/><path d="m464 88h16v16h-16z"/><path d="m48 240h-16v24h-16v16h16v24h16v-24h16v-16h-16z"/><path d="m232 448h16v16h-16z"/></g></g></svg>